<svg width="527" height="132" viewBox="0 0 527 132" fill="none" xmlns="http://www.w3.org/2000/svg">
<g opacity="0.3">
<mask id="mask0" mask-type="alpha" maskUnits="userSpaceOnUse" x="0" y="0" width="527" height="132">
<rect x="0.5" y="0.5" width="526" height="131" fill="#C4C4C4" stroke="#277633"/>
</mask>
<g mask="url(#mask0)">
<g opacity="0.8">
<g opacity="0.8">
<path opacity="0.8" d="M399.275 131.445L406.533 122.677L400.615 115.527L407.558 107.139H424.521L436.748 121.913L448.973 107.139H465.938L472.875 115.527L466.959 122.677L474.215 131.445L487.388 115.528L470.664 95.3203H444.24L436.745 104.378L429.248 95.3203H402.824L386.1 115.528L399.275 131.445Z" stroke="#277633" stroke-miterlimit="10"/>
</g>
<g opacity="0.8">
<path opacity="0.8" d="M402.828 88.0742H429.252L436.748 79.0171L444.243 88.0742H470.668L487.392 67.8663L474.219 51.9492L466.963 60.7172L472.879 67.8663L465.942 76.255H448.977L436.752 61.4812L424.525 76.255H407.558L400.615 67.8663L406.533 60.7172L399.274 51.9492L386.104 67.8663L402.828 88.0742Z" stroke="#277633" stroke-miterlimit="10"/>
</g>
<g opacity="0.8">
<path opacity="0.8" d="M379.554 117.147L400.615 91.698L379.554 66.248L358.494 91.698L379.554 117.147Z" stroke="#277633" stroke-miterlimit="10"/>
</g>
<g opacity="0.8">
<path opacity="0.8" d="M388.077 91.697L379.557 101.993L371.035 91.697L379.557 81.4004L388.077 91.697Z" stroke="#277633" stroke-miterlimit="10"/>
</g>
<g opacity="0.8">
<path opacity="0.8" d="M493.941 117.147L515.002 91.698L493.941 66.248L472.881 91.698L493.941 117.147Z" stroke="#277633" stroke-miterlimit="10"/>
</g>
<g opacity="0.8">
<path opacity="0.8" d="M502.462 91.697L493.94 101.993L485.42 91.697L493.94 81.4004L502.462 91.697Z" stroke="#277633" stroke-miterlimit="10"/>
</g>
<g opacity="0.8">
<path opacity="0.8" d="M502.462 91.697L493.94 101.993L485.42 91.697L493.94 81.4004L502.462 91.697Z" stroke="#277633" stroke-miterlimit="10"/>
</g>
<g opacity="0.8">
<path opacity="0.8" d="M441.09 91.6955L436.744 96.9447L432.4 91.6955L436.744 86.4453L441.09 91.6955Z" stroke="#277633" stroke-miterlimit="10"/>
</g>
</g>
<g opacity="0.8">
<g opacity="0.8">
<path opacity="0.8" d="M124.515 131.445L131.773 122.677L125.855 115.527L132.798 107.139H149.761L161.988 121.913L174.213 107.139H191.179L198.115 115.527L192.199 122.677L199.456 131.445L212.629 115.528L195.904 95.3203H169.48L161.985 104.378L154.488 95.3203H128.065L111.34 115.528L124.515 131.445Z" stroke="#277633" stroke-miterlimit="10"/>
</g>
<g opacity="0.8">
<path opacity="0.8" d="M128.068 88.0742H154.492L161.988 79.0171L169.483 88.0742H195.908L212.633 67.8663L199.459 51.9492L192.203 60.7172L198.119 67.8663L191.182 76.255H174.217L161.992 61.4812L149.765 76.255H132.798L125.855 67.8663L131.773 60.7172L124.515 51.9492L111.344 67.8663L128.068 88.0742Z" stroke="#277633" stroke-miterlimit="10"/>
</g>
<g opacity="0.8">
<path opacity="0.8" d="M104.792 117.147L125.853 91.698L104.792 66.248L83.7324 91.698L104.792 117.147Z" stroke="#277633" stroke-miterlimit="10"/>
</g>
<g opacity="0.8">
<path opacity="0.8" d="M113.32 91.697L104.799 101.993L96.2773 91.697L104.799 81.4004L113.32 91.697Z" stroke="#277633" stroke-miterlimit="10"/>
</g>
<g opacity="0.8">
<path opacity="0.8" d="M219.179 117.147L240.24 91.698L219.179 66.248L198.119 91.698L219.179 117.147Z" stroke="#277633" stroke-miterlimit="10"/>
</g>
<g opacity="0.8">
<path opacity="0.8" d="M227.702 91.697L219.18 101.993L210.66 91.697L219.18 81.4004L227.702 91.697Z" stroke="#277633" stroke-miterlimit="10"/>
</g>
<g opacity="0.8">
<path opacity="0.8" d="M227.702 91.697L219.18 101.993L210.66 91.697L219.18 81.4004L227.702 91.697Z" stroke="#277633" stroke-miterlimit="10"/>
</g>
<g opacity="0.8">
<path opacity="0.8" d="M166.332 91.6955L161.986 96.9447L157.643 91.6955L161.986 86.4453L166.332 91.6955Z" stroke="#277633" stroke-miterlimit="10"/>
</g>
</g>
<g opacity="0.8">
<g opacity="0.8">
<path opacity="0.8" d="M261.444 80.8086L268.703 72.0406L262.785 64.8906L269.728 56.5027H286.691L298.918 71.2767L311.143 56.5027H328.108L335.045 64.8906L329.129 72.0406L336.385 80.8086L349.558 64.8915L332.834 44.6836H306.41L298.915 53.7408L291.418 44.6836H264.994L248.27 64.8915L261.444 80.8086Z" stroke="#277633" stroke-miterlimit="10"/>
</g>
<g opacity="0.8">
<path opacity="0.8" d="M264.996 37.4374H291.419L298.916 28.3803L306.411 37.4374H332.836L349.56 17.2296L336.387 1.3125L329.131 10.0805L335.046 17.2296L328.11 25.6183H311.144L298.92 10.8444L286.693 25.6183H269.726L262.783 17.2296L268.701 10.0805L261.442 1.3125L248.271 17.2296L264.996 37.4374Z" stroke="#277633" stroke-miterlimit="10"/>
</g>
<g opacity="0.8">
<path opacity="0.8" d="M241.722 66.5103L262.783 41.0613L241.722 15.6113L220.662 41.0613L241.722 66.5103Z" stroke="#277633" stroke-miterlimit="10"/>
</g>
<g opacity="0.8">
<path opacity="0.8" d="M250.247 41.0603L241.727 51.3562L233.205 41.0603L241.727 30.7637L250.247 41.0603Z" stroke="#277633" stroke-miterlimit="10"/>
</g>
<g opacity="0.8">
<path opacity="0.8" d="M356.109 66.5103L377.17 41.0613L356.109 15.6113L335.049 41.0613L356.109 66.5103Z" stroke="#277633" stroke-miterlimit="10"/>
</g>
<g opacity="0.8">
<path opacity="0.8" d="M364.632 41.0603L356.11 51.3562L347.59 41.0603L356.11 30.7637L364.632 41.0603Z" stroke="#277633" stroke-miterlimit="10"/>
</g>
<g opacity="0.8">
<path opacity="0.8" d="M364.632 41.0603L356.11 51.3562L347.59 41.0603L356.11 30.7637L364.632 41.0603Z" stroke="#277633" stroke-miterlimit="10"/>
</g>
<g opacity="0.8">
<path opacity="0.8" d="M303.262 41.0588L298.916 46.308L294.572 41.0588L298.916 35.8086L303.262 41.0588Z" stroke="#277633" stroke-miterlimit="10"/>
</g>
</g>
</g>
</g>
</svg>
