<svg width="415" height="192" viewBox="0 0 415 192" fill="none" xmlns="http://www.w3.org/2000/svg">
<g opacity="0.4">
<path fill-rule="evenodd" clip-rule="evenodd" d="M339.09 137.371C338.551 155.703 345.732 166.207 348.444 187.213C351.15 166.206 358.337 155.702 357.793 137.371C369.772 165.747 385.247 180.989 405.352 178.81C376.937 168.054 380.951 144.789 368.751 127.779C403.418 123.479 412.325 97.345 413.891 64.998C401.984 94.923 387.512 115.798 370.396 113.12C359.266 111.381 358.97 105.872 360.322 100.563C361.915 94.333 374.604 89.975 372.427 103.191C390.819 88.567 353.257 71.507 348.445 105.864C343.631 71.506 306.068 88.564 324.458 103.191C322.284 89.976 334.976 94.333 336.565 100.563C337.92 105.872 337.622 111.381 326.49 113.12C309.375 115.795 294.905 94.92 283 64.998C284.563 97.344 293.466 123.475 328.137 127.779C315.937 144.79 319.953 168.054 291.538 178.81C311.641 180.989 327.111 165.747 339.09 137.371ZM342.835 123.282C342.836 122.546 342.981 121.816 343.263 121.136C343.545 120.456 343.958 119.838 344.479 119.317C344.999 118.796 345.618 118.383 346.298 118.102C346.979 117.82 347.708 117.675 348.444 117.675C349.931 117.675 351.357 118.266 352.409 119.318C353.46 120.369 354.051 121.795 354.051 123.282C354.051 124.769 353.461 126.196 352.409 127.247C351.358 128.299 349.932 128.891 348.444 128.891C347.708 128.891 346.978 128.746 346.298 128.464C345.617 128.183 344.999 127.77 344.478 127.249C343.957 126.728 343.544 126.11 343.262 125.429C342.98 124.749 342.835 124.02 342.834 123.283L342.835 123.282Z" stroke="#32C1AE" stroke-miterlimit="10"/>
<path fill-rule="evenodd" clip-rule="evenodd" d="M57.0903 137.371C56.5513 155.703 63.7323 166.207 66.4443 187.213C69.1503 166.206 76.3375 155.702 75.7935 137.371C87.7725 165.747 103.247 180.989 123.352 178.81C94.9366 168.054 98.9515 144.789 86.7515 127.779C121.418 123.479 130.325 97.345 131.891 64.998C119.984 94.923 105.512 115.798 88.3965 113.12C77.2665 111.381 76.9703 105.872 78.3223 100.563C79.9153 94.333 92.6042 89.975 90.4272 103.191C108.819 88.567 71.2573 71.507 66.4453 105.864C61.6313 71.506 24.0685 88.564 42.4585 103.191C40.2845 89.976 52.9764 94.333 54.5654 100.563C55.9204 105.872 55.6222 111.381 44.4902 113.12C27.3752 115.795 12.9045 94.92 0.999512 64.998C2.56251 97.344 11.4662 123.475 46.1372 127.779C33.9372 144.79 37.9526 168.054 9.5376 178.81C29.6406 180.989 45.1113 165.747 57.0903 137.371ZM60.8354 123.282C60.8356 122.546 60.9807 121.816 61.2627 121.136C61.5446 120.456 61.9577 119.838 62.4785 119.317C62.9994 118.796 63.6179 118.383 64.2983 118.102C64.9788 117.82 65.7079 117.675 66.4443 117.675C67.9313 117.675 69.3572 118.266 70.4087 119.318C71.4602 120.369 72.051 121.795 72.0513 123.282C72.0513 124.769 71.4606 126.196 70.4092 127.247C69.3577 128.299 67.9316 128.891 66.4443 128.891C65.7078 128.891 64.9784 128.746 64.2979 128.464C63.6173 128.183 62.999 127.77 62.478 127.249C61.9571 126.728 61.5437 126.11 61.2617 125.429C60.9797 124.749 60.8346 124.02 60.8345 123.283L60.8354 123.282Z" stroke="#32C1AE" stroke-miterlimit="10"/>
<path fill-rule="evenodd" clip-rule="evenodd" d="M216.792 53.8419C217.331 35.5099 210.15 25.0058 207.438 3.99985C204.732 25.0068 197.545 35.5109 198.089 53.8419C186.11 25.4659 170.636 10.2238 150.531 12.4028C178.946 23.1588 174.931 46.4238 187.131 63.4338C152.464 67.7338 143.558 93.8678 141.992 126.215C153.899 96.2898 168.37 75.4149 185.486 78.0929C196.616 79.8319 196.913 85.3408 195.561 90.6498C193.968 96.8798 181.279 101.238 183.456 88.0219C165.064 102.646 202.626 119.706 207.438 85.3488C212.252 119.707 249.814 102.649 231.424 88.0219C233.598 101.237 220.906 96.8798 219.317 90.6498C217.962 85.3408 218.261 79.8319 229.393 78.0929C246.508 75.4179 260.978 96.2928 272.883 126.215C271.32 93.8688 262.417 67.7378 227.746 63.4338C239.946 46.4228 235.93 23.1588 264.345 12.4028C244.242 10.2238 228.771 25.4659 216.792 53.8419ZM213.047 67.9308C213.047 68.6673 212.902 69.3965 212.62 70.0769C212.338 70.7572 211.925 71.3754 211.404 71.896C210.883 72.4167 210.265 72.8297 209.584 73.1114C208.904 73.3931 208.175 73.538 207.438 73.5378C205.951 73.5376 204.526 72.9468 203.474 71.8953C202.423 70.8438 201.832 69.4178 201.832 67.9308C201.832 66.4436 202.422 65.0172 203.474 63.9654C204.525 62.9136 205.951 62.3224 207.438 62.3218C208.175 62.3217 208.904 62.4667 209.585 62.7484C210.266 63.0302 210.884 63.4432 211.405 63.964C211.926 64.4847 212.339 65.103 212.621 65.7834C212.903 66.4639 213.048 67.1933 213.048 67.9298L213.047 67.9308Z" stroke="#32C1AE" stroke-miterlimit="10"/>
</g>
</svg>
