<svg width="285" height="145" viewBox="0 0 285 145" fill="none" xmlns="http://www.w3.org/2000/svg">
<g clip-path="url(#clip0)">
<path d="M74.3293 0.261239L87.5145 16.2105L76.7571 29.2089L89.382 44.4485H120.197L142.422 17.5925L164.646 44.4485H195.461L208.049 29.2089L197.329 16.2105L210.514 0.261239L234.419 29.2089L204.052 65.9258H156.055L142.422 49.4536L128.788 65.9258H80.7911L50.3867 29.2089L74.3293 0.261239Z" stroke="#004908" stroke-miterlimit="10"/>
<path d="M80.7911 79.074H128.788L142.422 95.5462L156.055 79.074H204.052L234.419 115.791L210.514 144.701L197.329 128.789L208.049 115.791L195.461 100.551H164.646L142.422 127.37L120.197 100.551H89.382L76.7571 115.791L87.5145 128.789L74.3293 144.701L50.3867 115.791L80.7911 79.074Z" stroke="#004908" stroke-miterlimit="10"/>
<path d="M38.5083 26.258L76.7566 72.4996L38.5083 118.741L0.222656 72.4996L38.5083 26.258Z" stroke="#004908" stroke-miterlimit="10"/>
<path d="M53.9725 72.4996L38.5088 53.7863L23.0078 72.4996L38.5088 91.2129L53.9725 72.4996Z" stroke="#004908" stroke-miterlimit="10"/>
<path d="M246.336 26.258L284.585 72.4996L246.336 118.741L208.051 72.4996L246.336 26.258Z" stroke="#004908" stroke-miterlimit="10"/>
<path d="M261.797 72.4996L246.333 53.7863L230.832 72.4996L246.333 91.2129L261.797 72.4996Z" stroke="#004908" stroke-miterlimit="10"/>
<path d="M150.305 72.5002L142.424 62.9381L134.543 72.5002L142.424 82.0249L150.305 72.5002Z" stroke="#004908" stroke-miterlimit="10"/>
</g>
<defs>
<clipPath id="clip0">
<rect width="284.845" height="145" fill="white" transform="matrix(1 0 0 -1 0 145)"/>
</clipPath>
</defs>
</svg>
